<svg width="582" height="210" viewBox="0 0 582 210" fill="none" xmlns="http://www.w3.org/2000/svg">
<path d="M0.131125 163.664V132.272L95.1711 4.39999H144.131L51.1071 132.272L28.3551 125.648H187.043V163.664H0.131125ZM108.707 206V163.664L110.147 125.648V87.92H154.211V206H108.707ZM287.398 209.456C270.886 209.456 256.102 205.424 243.046 197.36C229.99 189.104 219.718 177.2 212.23 161.648C204.742 146.096 200.998 127.28 200.998 105.2C200.998 83.12 204.742 64.304 212.23 48.752C219.718 33.2 229.99 21.392 243.046 13.328C256.102 5.07199 270.886 0.943996 287.398 0.943996C304.102 0.943996 318.886 5.07199 331.75 13.328C344.806 21.392 355.078 33.2 362.566 48.752C370.054 64.304 373.798 83.12 373.798 105.2C373.798 127.28 370.054 146.096 362.566 161.648C355.078 177.2 344.806 189.104 331.75 197.36C318.886 205.424 304.102 209.456 287.398 209.456ZM287.398 170C295.27 170 302.086 167.792 307.846 163.376C313.798 158.96 318.406 151.952 321.67 142.352C325.126 132.752 326.854 120.368 326.854 105.2C326.854 90.032 325.126 77.648 321.67 68.048C318.406 58.448 313.798 51.44 307.846 47.024C302.086 42.608 295.27 40.4 287.398 40.4C279.718 40.4 272.902 42.608 266.95 47.024C261.19 51.44 256.582 58.448 253.126 68.048C249.862 77.648 248.23 90.032 248.23 105.2C248.23 120.368 249.862 132.752 253.126 142.352C256.582 151.952 261.19 158.96 266.95 163.376C272.902 167.792 279.718 170 287.398 170ZM394.162 163.664V132.272L489.202 4.39999H538.162L445.138 132.272L422.386 125.648H581.074V163.664H394.162ZM502.738 206V163.664L504.178 125.648V87.92H548.242V206H502.738Z" fill="#FF6060"/>
</svg>
